<mxfile host="app.diagrams.net" agent="Mozilla/5.0 (Windows NT 10.0; Win64; x64) AppleWebKit/537.36 (KHTML, like Gecko) Chrome/129.0.0.0 Safari/537.36" version="24.8.0">
  <diagram name="페이지-1" id="jO7z1dyCeIapQeeWM0qE">
    <mxGraphModel dx="1834" dy="1180" grid="0" gridSize="10" guides="1" tooltips="1" connect="1" arrows="1" fold="1" page="0" pageScale="1" pageWidth="827" pageHeight="1169" math="0" shadow="0">
      <root>
        <mxCell id="0" />
        <mxCell id="1" parent="0" />
        <mxCell id="dWjAk6hpG_CuCAJiAuPZ-34" value="&amp;nbsp; &amp;nbsp; &amp;nbsp; &amp;nbsp; &amp;nbsp; &amp;nbsp; &amp;nbsp; &amp;nbsp; &amp;nbsp; &amp;nbsp; &amp;nbsp; &amp;nbsp; &amp;nbsp; &amp;nbsp; &amp;nbsp; &amp;nbsp; &amp;nbsp; &amp;nbsp; &amp;nbsp; &amp;nbsp; &amp;nbsp; 리스트 작성,수정,삭제&amp;nbsp;&lt;div&gt;&amp;nbsp; &amp;nbsp; &amp;nbsp; &amp;nbsp; &amp;nbsp; &amp;nbsp; &amp;nbsp; &amp;nbsp; &amp;nbsp; &amp;nbsp; &amp;nbsp; &amp;nbsp; &amp;nbsp; &amp;nbsp; &amp;nbsp; &amp;nbsp; &amp;nbsp; &amp;nbsp; &amp;nbsp; &amp;nbsp; &amp;nbsp;&lt;/div&gt;" style="rounded=0;whiteSpace=wrap;html=1;fillColor=#dae8fc;strokeColor=#6c8ebf;" parent="1" vertex="1">
          <mxGeometry x="80.5" y="633" width="290" height="233" as="geometry" />
        </mxCell>
        <mxCell id="dWjAk6hpG_CuCAJiAuPZ-11" value="" style="rounded=1;whiteSpace=wrap;html=1;" parent="1" vertex="1">
          <mxGeometry x="-310" y="-43" width="721" height="198" as="geometry" />
        </mxCell>
        <mxCell id="dWjAk6hpG_CuCAJiAuPZ-8" value="" style="edgeStyle=none;curved=1;rounded=0;orthogonalLoop=1;jettySize=auto;html=1;fontSize=12;startSize=8;endSize=8;" parent="1" source="dWjAk6hpG_CuCAJiAuPZ-4" target="dWjAk6hpG_CuCAJiAuPZ-7" edge="1">
          <mxGeometry relative="1" as="geometry" />
        </mxCell>
        <mxCell id="dWjAk6hpG_CuCAJiAuPZ-4" value="지역 리스트 출력" style="rounded=0;whiteSpace=wrap;html=1;fillColor=#d5e8d4;strokeColor=#82b366;" parent="1" vertex="1">
          <mxGeometry x="-273" y="12" width="273" height="105" as="geometry" />
        </mxCell>
        <mxCell id="dWjAk6hpG_CuCAJiAuPZ-36" style="edgeStyle=orthogonalEdgeStyle;rounded=0;orthogonalLoop=1;jettySize=auto;html=1;entryX=0.5;entryY=0;entryDx=0;entryDy=0;fontSize=12;startSize=8;endSize=8;" parent="1" source="dWjAk6hpG_CuCAJiAuPZ-6" target="dWjAk6hpG_CuCAJiAuPZ-13" edge="1">
          <mxGeometry relative="1" as="geometry" />
        </mxCell>
        <mxCell id="dWjAk6hpG_CuCAJiAuPZ-37" style="edgeStyle=orthogonalEdgeStyle;rounded=0;orthogonalLoop=1;jettySize=auto;html=1;entryX=0.5;entryY=0;entryDx=0;entryDy=0;fontSize=12;startSize=8;endSize=8;" parent="1" source="dWjAk6hpG_CuCAJiAuPZ-6" target="dWjAk6hpG_CuCAJiAuPZ-14" edge="1">
          <mxGeometry relative="1" as="geometry" />
        </mxCell>
        <mxCell id="dWjAk6hpG_CuCAJiAuPZ-6" value="로그인 관련" style="rounded=0;whiteSpace=wrap;html=1;fillColor=#d5e8d4;strokeColor=#82b366;" parent="1" vertex="1">
          <mxGeometry x="89" y="12" width="273" height="105" as="geometry" />
        </mxCell>
        <mxCell id="dWjAk6hpG_CuCAJiAuPZ-10" value="" style="edgeStyle=none;curved=1;rounded=0;orthogonalLoop=1;jettySize=auto;html=1;fontSize=12;startSize=8;endSize=8;" parent="1" source="dWjAk6hpG_CuCAJiAuPZ-7" target="dWjAk6hpG_CuCAJiAuPZ-9" edge="1">
          <mxGeometry relative="1" as="geometry" />
        </mxCell>
        <mxCell id="dWjAk6hpG_CuCAJiAuPZ-7" value="input : 지역&lt;div&gt;input: 인원수&lt;/div&gt;" style="rounded=0;whiteSpace=wrap;html=1;fillColor=#f8cecc;strokeColor=#b85450;" parent="1" vertex="1">
          <mxGeometry x="-273" y="176" width="273" height="105" as="geometry" />
        </mxCell>
        <mxCell id="dWjAk6hpG_CuCAJiAuPZ-27" value="" style="edgeStyle=none;curved=1;rounded=0;orthogonalLoop=1;jettySize=auto;html=1;fontSize=12;startSize=8;endSize=8;" parent="1" source="dWjAk6hpG_CuCAJiAuPZ-9" target="dWjAk6hpG_CuCAJiAuPZ-16" edge="1">
          <mxGeometry relative="1" as="geometry" />
        </mxCell>
        <mxCell id="dWjAk6hpG_CuCAJiAuPZ-9" value="리스트 출력&lt;div&gt;가격순, 별점순 정렬&lt;/div&gt;" style="rounded=0;whiteSpace=wrap;html=1;fillColor=#d5e8d4;strokeColor=#82b366;" parent="1" vertex="1">
          <mxGeometry x="-273" y="318" width="273" height="105" as="geometry" />
        </mxCell>
        <mxCell id="dWjAk6hpG_CuCAJiAuPZ-12" value="메인 화면" style="text;html=1;align=center;verticalAlign=middle;whiteSpace=wrap;rounded=0;fontSize=16;" parent="1" vertex="1">
          <mxGeometry x="-54" y="-33" width="216" height="30" as="geometry" />
        </mxCell>
        <mxCell id="dWjAk6hpG_CuCAJiAuPZ-29" style="edgeStyle=orthogonalEdgeStyle;rounded=0;orthogonalLoop=1;jettySize=auto;html=1;entryX=0.5;entryY=0;entryDx=0;entryDy=0;fontSize=12;startSize=8;endSize=8;" parent="1" source="dWjAk6hpG_CuCAJiAuPZ-13" target="dWjAk6hpG_CuCAJiAuPZ-15" edge="1">
          <mxGeometry relative="1" as="geometry" />
        </mxCell>
        <mxCell id="dWjAk6hpG_CuCAJiAuPZ-13" value="로그인&lt;div&gt;input: id&lt;/div&gt;&lt;div&gt;input: password&lt;/div&gt;" style="rounded=0;whiteSpace=wrap;html=1;fillColor=#d5e8d4;strokeColor=#82b366;" parent="1" vertex="1">
          <mxGeometry x="89" y="176" width="106" height="105" as="geometry" />
        </mxCell>
        <mxCell id="dWjAk6hpG_CuCAJiAuPZ-30" value="" style="edgeStyle=none;curved=1;rounded=0;orthogonalLoop=1;jettySize=auto;html=1;fontSize=12;startSize=8;endSize=8;" parent="1" source="dWjAk6hpG_CuCAJiAuPZ-14" target="dWjAk6hpG_CuCAJiAuPZ-13" edge="1">
          <mxGeometry relative="1" as="geometry" />
        </mxCell>
        <mxCell id="dWjAk6hpG_CuCAJiAuPZ-14" value="회원가입&lt;div&gt;&lt;div&gt;input: ID&lt;br&gt;&lt;/div&gt;&lt;div&gt;input : password&lt;/div&gt;&lt;div&gt;input :name&lt;/div&gt;&lt;div&gt;input :age&lt;br&gt;&lt;/div&gt;&lt;div&gt;input: email&lt;br&gt;&lt;/div&gt;&lt;div&gt;input: phone num&lt;/div&gt;&lt;/div&gt;" style="rounded=0;whiteSpace=wrap;html=1;fillColor=#d5e8d4;strokeColor=#82b366;" parent="1" vertex="1">
          <mxGeometry x="239" y="176" width="123" height="105" as="geometry" />
        </mxCell>
        <mxCell id="dWjAk6hpG_CuCAJiAuPZ-31" style="edgeStyle=orthogonalEdgeStyle;rounded=0;orthogonalLoop=1;jettySize=auto;html=1;entryX=0.5;entryY=0;entryDx=0;entryDy=0;fontSize=12;startSize=8;endSize=8;" parent="1" source="dWjAk6hpG_CuCAJiAuPZ-15" target="dWjAk6hpG_CuCAJiAuPZ-17" edge="1">
          <mxGeometry relative="1" as="geometry" />
        </mxCell>
        <mxCell id="dWjAk6hpG_CuCAJiAuPZ-32" style="edgeStyle=orthogonalEdgeStyle;rounded=0;orthogonalLoop=1;jettySize=auto;html=1;entryX=0.5;entryY=0;entryDx=0;entryDy=0;fontSize=12;startSize=8;endSize=8;" parent="1" source="dWjAk6hpG_CuCAJiAuPZ-15" target="dWjAk6hpG_CuCAJiAuPZ-24" edge="1">
          <mxGeometry relative="1" as="geometry" />
        </mxCell>
        <mxCell id="dWjAk6hpG_CuCAJiAuPZ-15" value="로그인 완료&lt;div&gt;[1]이용자 [2]관리자&lt;/div&gt;" style="rounded=0;whiteSpace=wrap;html=1;fillColor=#d5e8d4;strokeColor=#82b366;" parent="1" vertex="1">
          <mxGeometry x="93" y="328" width="275" height="60" as="geometry" />
        </mxCell>
        <mxCell id="dWjAk6hpG_CuCAJiAuPZ-23" value="" style="edgeStyle=orthogonalEdgeStyle;rounded=0;orthogonalLoop=1;jettySize=auto;html=1;fontSize=12;startSize=8;endSize=8;" parent="1" source="dWjAk6hpG_CuCAJiAuPZ-16" target="dWjAk6hpG_CuCAJiAuPZ-20" edge="1">
          <mxGeometry relative="1" as="geometry" />
        </mxCell>
        <mxCell id="dWjAk6hpG_CuCAJiAuPZ-26" style="edgeStyle=orthogonalEdgeStyle;rounded=0;orthogonalLoop=1;jettySize=auto;html=1;entryX=0.5;entryY=0;entryDx=0;entryDy=0;fontSize=12;startSize=8;endSize=8;" parent="1" source="dWjAk6hpG_CuCAJiAuPZ-16" target="dWjAk6hpG_CuCAJiAuPZ-19" edge="1">
          <mxGeometry relative="1" as="geometry" />
        </mxCell>
        <mxCell id="dWjAk6hpG_CuCAJiAuPZ-16" value="상세 페이지&lt;div&gt;[1] 예약 [2] 리뷰보기 [3]돌아가기&lt;/div&gt;" style="rounded=0;whiteSpace=wrap;html=1;fillColor=#d5e8d4;strokeColor=#82b366;" parent="1" vertex="1">
          <mxGeometry x="-273" y="467" width="273" height="85" as="geometry" />
        </mxCell>
        <mxCell id="dWjAk6hpG_CuCAJiAuPZ-33" value="" style="edgeStyle=none;curved=1;rounded=0;orthogonalLoop=1;jettySize=auto;html=1;fontSize=12;startSize=8;endSize=8;" parent="1" source="dWjAk6hpG_CuCAJiAuPZ-17" target="dWjAk6hpG_CuCAJiAuPZ-21" edge="1">
          <mxGeometry relative="1" as="geometry" />
        </mxCell>
        <mxCell id="dWjAk6hpG_CuCAJiAuPZ-44" style="edgeStyle=orthogonalEdgeStyle;rounded=0;orthogonalLoop=1;jettySize=auto;html=1;entryX=0;entryY=0.5;entryDx=0;entryDy=0;fontSize=12;startSize=8;endSize=8;exitX=0;exitY=0.5;exitDx=0;exitDy=0;" parent="1" source="dWjAk6hpG_CuCAJiAuPZ-17" target="dWjAk6hpG_CuCAJiAuPZ-43" edge="1">
          <mxGeometry relative="1" as="geometry">
            <Array as="points">
              <mxPoint x="89" y="518" />
              <mxPoint x="61" y="518" />
              <mxPoint x="61" y="932" />
            </Array>
          </mxGeometry>
        </mxCell>
        <mxCell id="dWjAk6hpG_CuCAJiAuPZ-17" value="로그인 메인&lt;div&gt;[1] 검색 [2] 리뷰 작성&amp;nbsp;&lt;/div&gt;&lt;div&gt;[3]예약 목록확인&amp;nbsp;&lt;/div&gt;&lt;div&gt;[4]로그아웃&lt;/div&gt;&lt;div&gt;[5] 회원탈퇴&lt;/div&gt;" style="rounded=0;whiteSpace=wrap;html=1;fillColor=#d5e8d4;strokeColor=#82b366;" parent="1" vertex="1">
          <mxGeometry x="89" y="444" width="133" height="144" as="geometry" />
        </mxCell>
        <mxCell id="dWjAk6hpG_CuCAJiAuPZ-46" style="edgeStyle=orthogonalEdgeStyle;rounded=0;orthogonalLoop=1;jettySize=auto;html=1;entryX=0;entryY=0.5;entryDx=0;entryDy=0;fontSize=12;startSize=8;endSize=8;" parent="1" source="dWjAk6hpG_CuCAJiAuPZ-19" target="dWjAk6hpG_CuCAJiAuPZ-45" edge="1">
          <mxGeometry relative="1" as="geometry">
            <Array as="points">
              <mxPoint x="-293" y="723" />
              <mxPoint x="-293" y="936" />
            </Array>
          </mxGeometry>
        </mxCell>
        <mxCell id="dWjAk6hpG_CuCAJiAuPZ-19" value="예약 하기&lt;div&gt;날짜 선택&lt;/div&gt;" style="rounded=0;whiteSpace=wrap;html=1;fillColor=#d5e8d4;strokeColor=#82b366;" parent="1" vertex="1">
          <mxGeometry x="-273" y="607" width="144" height="261" as="geometry" />
        </mxCell>
        <mxCell id="dWjAk6hpG_CuCAJiAuPZ-39" style="edgeStyle=none;curved=1;rounded=0;orthogonalLoop=1;jettySize=auto;html=1;entryX=0.5;entryY=0;entryDx=0;entryDy=0;fontSize=12;startSize=8;endSize=8;" parent="1" source="dWjAk6hpG_CuCAJiAuPZ-20" target="dWjAk6hpG_CuCAJiAuPZ-38" edge="1">
          <mxGeometry relative="1" as="geometry" />
        </mxCell>
        <mxCell id="dWjAk6hpG_CuCAJiAuPZ-20" value="한줄 리뷰&amp;nbsp;&lt;div&gt;리&lt;span style=&quot;background-color: initial;&quot;&gt;스트 불러오기&lt;/span&gt;&lt;div&gt;&lt;div&gt;&lt;br&gt;&lt;/div&gt;&lt;/div&gt;&lt;/div&gt;" style="rounded=0;whiteSpace=wrap;html=1;fillColor=#d5e8d4;strokeColor=#82b366;" parent="1" vertex="1">
          <mxGeometry x="-112" y="607" width="134" height="83" as="geometry" />
        </mxCell>
        <mxCell id="dWjAk6hpG_CuCAJiAuPZ-21" value="리뷰 작성, 수정, 삭제&amp;nbsp;&lt;div&gt;별점등록&lt;/div&gt;&lt;div&gt;작성자, 관리자 확인&lt;/div&gt;" style="rounded=0;whiteSpace=wrap;html=1;fillColor=#d5e8d4;strokeColor=#82b366;" parent="1" vertex="1">
          <mxGeometry x="95.5" y="660" width="120" height="155" as="geometry" />
        </mxCell>
        <mxCell id="dWjAk6hpG_CuCAJiAuPZ-35" value="" style="edgeStyle=orthogonalEdgeStyle;rounded=0;orthogonalLoop=1;jettySize=auto;html=1;fontSize=12;startSize=8;endSize=8;" parent="1" source="dWjAk6hpG_CuCAJiAuPZ-24" target="dWjAk6hpG_CuCAJiAuPZ-34" edge="1">
          <mxGeometry relative="1" as="geometry" />
        </mxCell>
        <mxCell id="dWjAk6hpG_CuCAJiAuPZ-24" value="관리자 로그인 메인&lt;div&gt;[1] 검색 [2] 리스트관리&amp;nbsp; [3]로그아웃&lt;/div&gt;" style="rounded=0;whiteSpace=wrap;html=1;fillColor=#d5e8d4;strokeColor=#82b366;" parent="1" vertex="1">
          <mxGeometry x="245" y="444" width="133" height="144" as="geometry" />
        </mxCell>
        <mxCell id="dWjAk6hpG_CuCAJiAuPZ-38" value="&lt;div&gt;&lt;div&gt;추천/비추천&lt;/div&gt;&lt;/div&gt;" style="rounded=0;whiteSpace=wrap;html=1;fillColor=#d5e8d4;strokeColor=#82b366;" parent="1" vertex="1">
          <mxGeometry x="-112" y="742" width="134" height="127" as="geometry" />
        </mxCell>
        <mxCell id="dWjAk6hpG_CuCAJiAuPZ-41" value="" style="endArrow=classic;startArrow=classic;html=1;rounded=0;fontSize=12;startSize=8;endSize=8;exitX=0.5;exitY=1;exitDx=0;exitDy=0;entryX=0;entryY=0.5;entryDx=0;entryDy=0;edgeStyle=orthogonalEdgeStyle;" parent="1" source="dWjAk6hpG_CuCAJiAuPZ-19" target="dWjAk6hpG_CuCAJiAuPZ-13" edge="1">
          <mxGeometry width="50" height="50" relative="1" as="geometry">
            <mxPoint x="370" y="587" as="sourcePoint" />
            <mxPoint x="420" y="537" as="targetPoint" />
            <Array as="points">
              <mxPoint x="-201" y="886" />
              <mxPoint x="37" y="886" />
              <mxPoint x="37" y="229" />
            </Array>
          </mxGeometry>
        </mxCell>
        <mxCell id="dWjAk6hpG_CuCAJiAuPZ-42" style="edgeStyle=none;curved=1;rounded=0;orthogonalLoop=1;jettySize=auto;html=1;exitX=0.5;exitY=0;exitDx=0;exitDy=0;fontSize=12;startSize=8;endSize=8;" parent="1" source="dWjAk6hpG_CuCAJiAuPZ-21" target="dWjAk6hpG_CuCAJiAuPZ-21" edge="1">
          <mxGeometry relative="1" as="geometry" />
        </mxCell>
        <mxCell id="dWjAk6hpG_CuCAJiAuPZ-43" value="이용자 예약 목록 리스트&lt;div&gt;[1] 예약 확인 [2]삭제 [3]돌아가기&lt;/div&gt;" style="rounded=0;whiteSpace=wrap;html=1;fillColor=#d5e8d4;strokeColor=#82b366;" parent="1" vertex="1">
          <mxGeometry x="80.5" y="902" width="288.5" height="60" as="geometry" />
        </mxCell>
        <mxCell id="dWjAk6hpG_CuCAJiAuPZ-45" value="예약성공 메시지 발송&lt;div&gt;[1]핸드폰 번호로 발송완료 문자열 생성&lt;br&gt;[2]난수생성으로 예약번호 생성&lt;/div&gt;" style="rounded=0;whiteSpace=wrap;html=1;fillColor=#d5e8d4;strokeColor=#82b366;" parent="1" vertex="1">
          <mxGeometry x="-266.5" y="902" width="288.5" height="60" as="geometry" />
        </mxCell>
        <mxCell id="w3Ro1E21E2H8l9tgU71c-4" style="edgeStyle=orthogonalEdgeStyle;rounded=0;orthogonalLoop=1;jettySize=auto;html=1;fontSize=12;startSize=8;endSize=8;entryX=0.5;entryY=0;entryDx=0;entryDy=0;" parent="1" source="w3Ro1E21E2H8l9tgU71c-2" target="w3Ro1E21E2H8l9tgU71c-6" edge="1">
          <mxGeometry relative="1" as="geometry">
            <mxPoint x="738" y="112" as="targetPoint" />
            <Array as="points">
              <mxPoint x="850" y="79" />
              <mxPoint x="747" y="79" />
            </Array>
          </mxGeometry>
        </mxCell>
        <mxCell id="w3Ro1E21E2H8l9tgU71c-2" value="1. 로그인 2.회원가입 3.종료" style="rounded=0;whiteSpace=wrap;html=1;" parent="1" vertex="1">
          <mxGeometry x="775" y="-23" width="352" height="60" as="geometry" />
        </mxCell>
        <mxCell id="w3Ro1E21E2H8l9tgU71c-6" value="로그인 정보가 일치하는가" style="rhombus;whiteSpace=wrap;html=1;" parent="1" vertex="1">
          <mxGeometry x="651" y="112" width="192" height="80" as="geometry" />
        </mxCell>
        <mxCell id="v8jQzw-NbdLlAFEhNXOF-1" value="" style="endArrow=classic;html=1;rounded=0;exitX=0.5;exitY=1;exitDx=0;exitDy=0;entryX=0.5;entryY=0;entryDx=0;entryDy=0;" edge="1" parent="1" source="w3Ro1E21E2H8l9tgU71c-6" target="v8jQzw-NbdLlAFEhNXOF-7">
          <mxGeometry width="50" height="50" relative="1" as="geometry">
            <mxPoint x="836" y="346" as="sourcePoint" />
            <mxPoint x="747" y="244" as="targetPoint" />
          </mxGeometry>
        </mxCell>
        <mxCell id="v8jQzw-NbdLlAFEhNXOF-3" value="" style="endArrow=classic;html=1;rounded=0;exitX=1;exitY=0.5;exitDx=0;exitDy=0;entryX=0.381;entryY=0.983;entryDx=0;entryDy=0;entryPerimeter=0;edgeStyle=orthogonalEdgeStyle;" edge="1" parent="1" source="w3Ro1E21E2H8l9tgU71c-6" target="w3Ro1E21E2H8l9tgU71c-2">
          <mxGeometry width="50" height="50" relative="1" as="geometry">
            <mxPoint x="844" y="150" as="sourcePoint" />
            <mxPoint x="915" y="114" as="targetPoint" />
          </mxGeometry>
        </mxCell>
        <mxCell id="v8jQzw-NbdLlAFEhNXOF-4" value="no" style="text;html=1;align=center;verticalAlign=middle;whiteSpace=wrap;rounded=0;" vertex="1" parent="1">
          <mxGeometry x="841" y="125" width="60" height="30" as="geometry" />
        </mxCell>
        <mxCell id="v8jQzw-NbdLlAFEhNXOF-5" value="yes" style="text;html=1;align=center;verticalAlign=middle;whiteSpace=wrap;rounded=0;" vertex="1" parent="1">
          <mxGeometry x="738" y="196" width="60" height="30" as="geometry" />
        </mxCell>
        <mxCell id="v8jQzw-NbdLlAFEhNXOF-7" value="관리자계정인가" style="rhombus;whiteSpace=wrap;html=1;" vertex="1" parent="1">
          <mxGeometry x="651" y="240" width="192" height="80" as="geometry" />
        </mxCell>
        <mxCell id="v8jQzw-NbdLlAFEhNXOF-8" value="" style="endArrow=classic;html=1;rounded=0;exitX=0.49;exitY=1;exitDx=0;exitDy=0;exitPerimeter=0;entryX=0.133;entryY=1.1;entryDx=0;entryDy=0;entryPerimeter=0;" edge="1" parent="1" source="v8jQzw-NbdLlAFEhNXOF-7" target="v8jQzw-NbdLlAFEhNXOF-10">
          <mxGeometry width="50" height="50" relative="1" as="geometry">
            <mxPoint x="836" y="446" as="sourcePoint" />
            <mxPoint x="745" y="397" as="targetPoint" />
          </mxGeometry>
        </mxCell>
        <mxCell id="v8jQzw-NbdLlAFEhNXOF-9" value="" style="endArrow=classic;html=1;rounded=0;exitX=1;exitY=0.5;exitDx=0;exitDy=0;entryX=0;entryY=0.5;entryDx=0;entryDy=0;" edge="1" parent="1" source="v8jQzw-NbdLlAFEhNXOF-7" target="v8jQzw-NbdLlAFEhNXOF-16">
          <mxGeometry width="50" height="50" relative="1" as="geometry">
            <mxPoint x="836" y="446" as="sourcePoint" />
            <mxPoint x="894" y="280" as="targetPoint" />
          </mxGeometry>
        </mxCell>
        <mxCell id="v8jQzw-NbdLlAFEhNXOF-10" value="yes" style="text;html=1;align=center;verticalAlign=middle;whiteSpace=wrap;rounded=0;" vertex="1" parent="1">
          <mxGeometry x="736" y="330" width="60" height="30" as="geometry" />
        </mxCell>
        <mxCell id="v8jQzw-NbdLlAFEhNXOF-11" value="no" style="text;html=1;align=center;verticalAlign=middle;whiteSpace=wrap;rounded=0;" vertex="1" parent="1">
          <mxGeometry x="838" y="245" width="60" height="30" as="geometry" />
        </mxCell>
        <mxCell id="v8jQzw-NbdLlAFEhNXOF-12" value="관리자 로그인 성공" style="rhombus;whiteSpace=wrap;html=1;" vertex="1" parent="1">
          <mxGeometry x="646" y="364" width="192" height="80" as="geometry" />
        </mxCell>
        <mxCell id="v8jQzw-NbdLlAFEhNXOF-13" value="호텔 리스트 수정" style="rhombus;whiteSpace=wrap;html=1;" vertex="1" parent="1">
          <mxGeometry x="646" y="483" width="192" height="80" as="geometry" />
        </mxCell>
        <mxCell id="v8jQzw-NbdLlAFEhNXOF-14" value="회원 강제 탈퇴" style="rhombus;whiteSpace=wrap;html=1;" vertex="1" parent="1">
          <mxGeometry x="646" y="700" width="192" height="80" as="geometry" />
        </mxCell>
        <mxCell id="v8jQzw-NbdLlAFEhNXOF-15" value="리뷰 삭제" style="rhombus;whiteSpace=wrap;html=1;" vertex="1" parent="1">
          <mxGeometry x="646" y="588" width="192" height="80" as="geometry" />
        </mxCell>
        <mxCell id="v8jQzw-NbdLlAFEhNXOF-16" value="일반 로그인 성공" style="rhombus;whiteSpace=wrap;html=1;" vertex="1" parent="1">
          <mxGeometry x="1082" y="240" width="192" height="80" as="geometry" />
        </mxCell>
        <mxCell id="v8jQzw-NbdLlAFEhNXOF-17" value="" style="endArrow=classic;html=1;rounded=0;exitX=0.5;exitY=1;exitDx=0;exitDy=0;entryX=0.5;entryY=0;entryDx=0;entryDy=0;" edge="1" parent="1" source="v8jQzw-NbdLlAFEhNXOF-16" target="v8jQzw-NbdLlAFEhNXOF-18">
          <mxGeometry width="50" height="50" relative="1" as="geometry">
            <mxPoint x="1163" y="421" as="sourcePoint" />
            <mxPoint x="1213" y="371" as="targetPoint" />
          </mxGeometry>
        </mxCell>
        <mxCell id="v8jQzw-NbdLlAFEhNXOF-18" value="호텔 검색" style="rhombus;whiteSpace=wrap;html=1;" vertex="1" parent="1">
          <mxGeometry x="1082" y="350" width="192" height="80" as="geometry" />
        </mxCell>
        <mxCell id="v8jQzw-NbdLlAFEhNXOF-19" value="" style="endArrow=classic;html=1;rounded=0;exitX=0.5;exitY=1;exitDx=0;exitDy=0;entryX=0.5;entryY=0;entryDx=0;entryDy=0;" edge="1" parent="1" source="v8jQzw-NbdLlAFEhNXOF-12" target="v8jQzw-NbdLlAFEhNXOF-13">
          <mxGeometry width="50" height="50" relative="1" as="geometry">
            <mxPoint x="925" y="596" as="sourcePoint" />
            <mxPoint x="975" y="546" as="targetPoint" />
          </mxGeometry>
        </mxCell>
        <mxCell id="v8jQzw-NbdLlAFEhNXOF-20" value="" style="endArrow=classic;html=1;rounded=0;exitX=0.5;exitY=1;exitDx=0;exitDy=0;entryX=0.5;entryY=0;entryDx=0;entryDy=0;" edge="1" parent="1" source="v8jQzw-NbdLlAFEhNXOF-13" target="v8jQzw-NbdLlAFEhNXOF-15">
          <mxGeometry width="50" height="50" relative="1" as="geometry">
            <mxPoint x="925" y="596" as="sourcePoint" />
            <mxPoint x="975" y="546" as="targetPoint" />
          </mxGeometry>
        </mxCell>
        <mxCell id="v8jQzw-NbdLlAFEhNXOF-21" value="" style="endArrow=classic;html=1;rounded=0;exitX=0.5;exitY=1;exitDx=0;exitDy=0;entryX=0.5;entryY=0;entryDx=0;entryDy=0;" edge="1" parent="1" source="v8jQzw-NbdLlAFEhNXOF-15" target="v8jQzw-NbdLlAFEhNXOF-14">
          <mxGeometry width="50" height="50" relative="1" as="geometry">
            <mxPoint x="925" y="596" as="sourcePoint" />
            <mxPoint x="975" y="546" as="targetPoint" />
          </mxGeometry>
        </mxCell>
        <mxCell id="v8jQzw-NbdLlAFEhNXOF-26" value="" style="endArrow=classic;html=1;rounded=0;exitX=1;exitY=0.5;exitDx=0;exitDy=0;entryX=0;entryY=0.5;entryDx=0;entryDy=0;" edge="1" parent="1" source="v8jQzw-NbdLlAFEhNXOF-18" target="v8jQzw-NbdLlAFEhNXOF-28">
          <mxGeometry width="50" height="50" relative="1" as="geometry">
            <mxPoint x="1218" y="496" as="sourcePoint" />
            <mxPoint x="1268" y="446" as="targetPoint" />
          </mxGeometry>
        </mxCell>
        <mxCell id="v8jQzw-NbdLlAFEhNXOF-28" value="지역 체크" style="rhombus;whiteSpace=wrap;html=1;" vertex="1" parent="1">
          <mxGeometry x="1358" y="350" width="192" height="80" as="geometry" />
        </mxCell>
        <mxCell id="v8jQzw-NbdLlAFEhNXOF-29" value="" style="endArrow=classic;html=1;rounded=0;exitX=0.5;exitY=1;exitDx=0;exitDy=0;" edge="1" parent="1" source="v8jQzw-NbdLlAFEhNXOF-18" target="v8jQzw-NbdLlAFEhNXOF-31">
          <mxGeometry width="50" height="50" relative="1" as="geometry">
            <mxPoint x="1218" y="496" as="sourcePoint" />
            <mxPoint x="1268" y="446" as="targetPoint" />
          </mxGeometry>
        </mxCell>
        <mxCell id="v8jQzw-NbdLlAFEhNXOF-30" value="" style="endArrow=classic;html=1;rounded=0;exitX=0.5;exitY=1;exitDx=0;exitDy=0;" edge="1" source="v8jQzw-NbdLlAFEhNXOF-31" parent="1" target="v8jQzw-NbdLlAFEhNXOF-32">
          <mxGeometry width="50" height="50" relative="1" as="geometry">
            <mxPoint x="1216" y="629" as="sourcePoint" />
            <mxPoint x="1266" y="579" as="targetPoint" />
          </mxGeometry>
        </mxCell>
        <mxCell id="v8jQzw-NbdLlAFEhNXOF-31" value="예약확인" style="rhombus;whiteSpace=wrap;html=1;" vertex="1" parent="1">
          <mxGeometry x="1082" y="472" width="192" height="80" as="geometry" />
        </mxCell>
        <mxCell id="v8jQzw-NbdLlAFEhNXOF-32" value="리뷰관리" style="rhombus;whiteSpace=wrap;html=1;" vertex="1" parent="1">
          <mxGeometry x="1080" y="588" width="192" height="80" as="geometry" />
        </mxCell>
        <mxCell id="v8jQzw-NbdLlAFEhNXOF-33" value="회원탈퇴" style="rhombus;whiteSpace=wrap;html=1;" vertex="1" parent="1">
          <mxGeometry x="1080" y="695" width="192" height="80" as="geometry" />
        </mxCell>
        <mxCell id="v8jQzw-NbdLlAFEhNXOF-34" value="" style="endArrow=classic;html=1;rounded=0;exitX=0.5;exitY=1;exitDx=0;exitDy=0;entryX=0.5;entryY=0;entryDx=0;entryDy=0;" edge="1" parent="1" source="v8jQzw-NbdLlAFEhNXOF-32" target="v8jQzw-NbdLlAFEhNXOF-33">
          <mxGeometry width="50" height="50" relative="1" as="geometry">
            <mxPoint x="1218" y="596" as="sourcePoint" />
            <mxPoint x="1268" y="546" as="targetPoint" />
          </mxGeometry>
        </mxCell>
        <mxCell id="v8jQzw-NbdLlAFEhNXOF-36" value="지역 체크" style="rhombus;whiteSpace=wrap;html=1;" vertex="1" parent="1">
          <mxGeometry x="1606" y="350" width="192" height="80" as="geometry" />
        </mxCell>
      </root>
    </mxGraphModel>
  </diagram>
</mxfile>
